<svg width="32" height="32" viewBox="0 0 32 32" fill="none" xmlns="http://www.w3.org/2000/svg">
<rect width="32" height="32" rx="16" fill="white"/>
<path d="M6.29181 18.8025L6.63107 17.275H11.6429L11.9976 18.8025H6.29181ZM9.11388 13.8839L7.41755 17.8096L7.38671 18.2068L5.89086 21.5521H3.83984L9.11388 10.2637L14.3879 21.5521H12.3369L10.8719 18.2984L10.8256 17.8555L9.11388 13.8839Z" fill="black"/>
<path d="M15.4432 11.7301C15.4432 11.445 15.546 11.2056 15.7516 11.0122C15.9675 10.8187 16.2142 10.7219 16.4918 10.7219C16.79 10.7219 17.0367 10.8187 17.232 11.0122C17.4376 11.2056 17.5405 11.445 17.5405 11.7301C17.5405 12.005 17.4376 12.2444 17.232 12.448C17.0367 12.6415 16.79 12.7383 16.4918 12.7383C16.2142 12.7383 15.9675 12.6415 15.7516 12.448C15.546 12.2444 15.4432 12.005 15.4432 11.7301ZM15.6745 14.5255H17.3091V21.5521H15.6745V14.5255Z" fill="black"/>
<path d="M21.0815 16.2057C21.0815 16.9593 21.2512 17.6212 21.5904 18.1915C21.94 18.7618 22.3923 19.2048 22.9475 19.5205C23.5129 19.826 24.1246 19.9787 24.7826 19.9787C25.2966 19.9787 25.7593 19.9125 26.1705 19.7801C26.5817 19.6478 26.9519 19.4695 27.2808 19.2455C27.6201 19.0113 27.9131 18.7516 28.1598 18.4665V20.605C27.7075 20.9716 27.2192 21.2517 26.6948 21.4451C26.1705 21.6386 25.5125 21.7354 24.7209 21.7354C23.9293 21.7354 23.1891 21.603 22.5003 21.3382C21.8218 21.0734 21.2306 20.6916 20.7268 20.1926C20.2231 19.6936 19.8273 19.108 19.5394 18.4359C19.2618 17.7536 19.123 17.0102 19.123 16.2057C19.123 15.4012 19.2618 14.6629 19.5394 13.9908C19.8273 13.3085 20.2231 12.7179 20.7268 12.2189C21.2306 11.7199 21.8218 11.338 22.5003 11.0733C23.1891 10.8085 23.9293 10.6761 24.7209 10.6761C25.5125 10.6761 26.1705 10.7728 26.6948 10.9663C27.2192 11.1598 27.7075 11.4399 28.1598 11.8065V13.945C27.9131 13.6599 27.6201 13.4053 27.2808 13.1812C26.9519 12.947 26.5817 12.7637 26.1705 12.6313C25.7593 12.4989 25.2966 12.4328 24.7826 12.4328C24.1246 12.4328 23.5129 12.5906 22.9475 12.9063C22.3923 13.2118 21.94 13.6497 21.5904 14.22C21.2512 14.78 21.0815 15.442 21.0815 16.2057Z" fill="black"/>
</svg>
