<svg width="32" height="32" viewBox="0 0 32 32" fill="none" xmlns="http://www.w3.org/2000/svg">
<rect width="32" height="32" rx="16" fill="white"/>
<path d="M7.2175 17.2253C7.2175 16.8223 7.54415 16.4957 7.9471 16.4957H17.9183L15.9727 17.9549H7.9471C7.54415 17.9549 7.2175 17.6282 7.2175 17.2253V17.2253ZM5.7583 13.5773C5.7583 13.1743 6.08495 12.8477 6.4879 12.8477H14.9999L13.0543 14.3069H6.4879C6.08495 14.3069 5.7583 13.9802 5.7583 13.5773V13.5773Z" fill="black"/>
<path d="M26.1803 16.7179L24.0312 11.7033C23.976 11.5745 23.8842 11.4647 23.7672 11.3875C23.6501 11.3104 23.5131 11.2692 23.3729 11.2692H21.2238V9.83649C21.2238 9.64649 21.1483 9.46428 21.0139 9.32994C20.8796 9.19559 20.6974 9.12012 20.5074 9.12012H9.76183C9.36619 9.12012 9.04546 9.44085 9.04546 9.83649V9.83649C9.04546 10.2321 9.36619 10.5529 9.76183 10.5529H19.791V19.5476C19.4648 19.7374 19.1793 19.9898 18.9509 20.2902C18.7224 20.5907 18.5556 20.9333 18.46 21.2984H13.9583C13.784 20.6231 13.3693 20.0346 12.7921 19.6432C12.2148 19.2517 11.5147 19.0843 10.8228 19.1721C10.1309 19.26 9.49482 19.5972 9.03377 20.1205C8.57272 20.6439 8.31836 21.3173 8.31836 22.0148C8.31836 22.7122 8.57272 23.3857 9.03377 23.909C9.49482 24.4324 10.1309 24.7696 10.8228 24.8574C11.5147 24.9453 12.2148 24.7778 12.7921 24.3864C13.3693 23.995 13.784 23.4065 13.9583 22.7312H18.46C18.6158 23.346 18.9722 23.8913 19.4728 24.2808C19.9734 24.6703 20.5895 24.8818 21.2238 24.8818C21.858 24.8818 22.4742 24.6703 22.9747 24.2808C23.4753 23.8913 23.8317 23.346 23.9875 22.7312H25.522C25.712 22.7312 25.8942 22.6557 26.0285 22.5213C26.1629 22.387 26.2384 22.2048 26.2384 22.0148V17.0002C26.2383 16.9032 26.2186 16.8071 26.1803 16.7179ZM11.1946 23.4475C10.9112 23.4475 10.6342 23.3635 10.3986 23.2061C10.163 23.0486 9.97934 22.8249 9.87089 22.5631C9.76245 22.3013 9.73408 22.0132 9.78936 21.7353C9.84465 21.4573 9.9811 21.2021 10.1815 21.0017C10.3818 20.8013 10.6371 20.6649 10.9151 20.6096C11.193 20.5543 11.4811 20.5827 11.7429 20.6911C12.0047 20.7995 12.2284 20.9832 12.3859 21.2188C12.5433 21.4544 12.6273 21.7314 12.6273 22.0148C12.6273 22.3948 12.4764 22.7592 12.2077 23.0279C11.939 23.2966 11.5746 23.4475 11.1946 23.4475ZM21.2238 12.702H22.9001L24.436 16.2838H21.2238V12.702ZM21.2238 23.4475C20.9404 23.4475 20.6634 23.3635 20.4278 23.2061C20.1922 23.0486 20.0085 22.8249 19.9001 22.5631C19.7916 22.3013 19.7633 22.0132 19.8186 21.7353C19.8738 21.4573 20.0103 21.2021 20.2107 21.0017C20.411 20.8013 20.6663 20.6649 20.9442 20.6096C21.2222 20.5543 21.5103 20.5827 21.7721 20.6911C22.0339 20.7995 22.2576 20.9832 22.415 21.2188C22.5725 21.4544 22.6565 21.7314 22.6565 22.0148C22.6565 22.3948 22.5056 22.7592 22.2369 23.0279C21.9682 23.2966 21.6038 23.4475 21.2238 23.4475ZM24.8056 21.2984H23.9875C23.8297 20.6848 23.4728 20.1409 22.9726 19.752C22.4724 19.363 21.8573 19.1511 21.2238 19.1493V17.7166H24.8056V21.2984Z" fill="black"/>
</svg>
