<svg width="32" height="32" viewBox="0 0 32 32" fill="none" xmlns="http://www.w3.org/2000/svg">
<rect width="32" height="32" rx="16" fill="white"/>
<path d="M12.6489 8.53724C12.6489 9.10397 12.8741 9.64748 13.2748 10.0482C13.6755 10.449 14.2191 10.6741 14.7858 10.6741C15.3525 10.6741 15.896 10.449 16.2968 10.0482C16.6975 9.64748 16.9226 9.10397 16.9226 8.53724C16.9226 7.97051 16.6975 7.427 16.2968 7.02626C15.896 6.62552 15.3525 6.40039 14.7858 6.40039C14.2191 6.40039 13.6755 6.62552 13.2748 7.02626C12.8741 7.427 12.6489 7.97051 12.6489 8.53724Z" stroke="black" stroke-width="1.6" stroke-linecap="round" stroke-linejoin="round"/>
<path d="M14.7857 10.6738V19.2212H19.0595L23.3332 24.5633M14.7857 14.9475H20.1279M10.512 15.4817C9.74649 15.7988 9.06519 16.2895 8.522 16.9152C7.9788 17.5409 7.58859 18.2844 7.38222 19.0868C7.17584 19.8893 7.15897 20.7288 7.33292 21.5389C7.50687 22.349 7.86689 23.1075 8.3845 23.7546C8.90211 24.4016 9.56313 24.9193 10.3153 25.2669C11.0675 25.6144 11.8902 25.7822 12.7184 25.757C13.5466 25.7318 14.3576 25.5143 15.0873 25.1217C15.8169 24.7291 16.4453 24.1722 16.9226 23.4949" stroke="black" stroke-width="1.6" stroke-linecap="round" stroke-linejoin="round"/>
</svg>
