<svg width="32" height="32" viewBox="0 0 32 32" fill="none" xmlns="http://www.w3.org/2000/svg">
<path fill-rule="evenodd" clip-rule="evenodd" d="M6.91188 29C5.87404 29 4.88817 28.5878 4.14553 27.8545C3.40288 27.1211 3 26.126 3 25.0881V6.91188C3 5.87404 3.41217 4.88817 4.14553 4.14553C4.87889 3.40288 5.87404 3 6.91188 3H25.0881C26.126 3 27.1118 3.41217 27.8545 4.14553C28.5971 4.87889 29 5.87404 29 6.91188V25.0881C29 26.126 28.5878 27.1118 27.8545 27.8545C27.1211 28.5971 26.126 29 25.0881 29H6.91188ZM22.7859 18.0274H20.0381V27.1063H25.0881C25.3533 27.107 25.6161 27.0553 25.8613 26.9541C26.1065 26.853 26.3292 26.7043 26.5168 26.5168C26.7043 26.3292 26.853 26.1065 26.9541 25.8613C27.0553 25.6161 27.107 25.3533 27.1063 25.0881V6.91188C27.1065 6.64679 27.0545 6.38425 26.9531 6.13929C26.8518 5.89432 26.7032 5.67175 26.5157 5.4843C26.3283 5.29685 26.1057 5.1482 25.8607 5.04687C25.6158 4.94553 25.3532 4.8935 25.0881 4.89374H6.91188C6.37709 4.89521 5.86462 5.10831 5.48647 5.48647C5.10831 5.86462 4.89521 6.37709 4.89374 6.91188V25.0881C4.89521 25.6229 5.10831 26.1354 5.48647 26.5135C5.86462 26.8917 6.37709 27.1048 6.91188 27.1063H17.0119V18.0274H13.9856V15.0011H17.0119V13.3748C17.0119 10.2928 18.512 8.93745 21.0778 8.93745C22.2791 8.93745 22.9252 9.02471 23.2315 9.06741L23.2501 9.06927V11.9656H21.5049C20.6248 11.9656 20.2089 12.3425 20.0827 13.1018C20.0524 13.2996 20.0381 13.4996 20.04 13.6997V14.9937H23.2148L22.7822 18.02L22.7859 18.0274Z" fill="black"/>
</svg>
