<svg width="32" height="32" viewBox="0 0 32 32" fill="none" xmlns="http://www.w3.org/2000/svg">
<rect width="32" height="32" rx="16" fill="white"/>
<path d="M8.44678 7.06152C8.57185 7.06832 8.69431 7.09989 8.80713 7.1543C8.92012 7.2088 9.02173 7.28506 9.10498 7.37891L9.10596 7.38086L24.3081 24.0977V24.0986C24.4737 24.2852 24.5588 24.5302 24.5454 24.7793C24.532 25.0283 24.4213 25.262 24.2368 25.4297C24.0523 25.5974 23.8091 25.6861 23.5601 25.6758C23.3108 25.6654 23.0748 25.5566 22.9048 25.374L21.9419 24.3145L21.814 24.1748L21.6724 24.2998C20.4396 25.3917 18.9176 26.105 17.2896 26.3525C15.6614 26.6001 13.9962 26.3715 12.4946 25.6953C10.993 25.0191 9.71847 23.9232 8.82471 22.54C7.93109 21.1569 7.45602 19.5451 7.45654 17.8984V10.2979C7.45663 10.1093 7.51332 9.92494 7.61865 9.76855C7.72405 9.61218 7.87358 9.4908 8.04834 9.41992L8.30322 9.31641L8.11865 9.1123L7.70264 8.65625L7.70166 8.6543L7.64111 8.58203C7.58444 8.50754 7.53893 8.42503 7.50635 8.33691C7.46289 8.2193 7.44255 8.09403 7.44775 7.96875C7.45299 7.84341 7.48348 7.72008 7.53662 7.60645C7.58971 7.49296 7.66464 7.39094 7.75732 7.30664C7.85016 7.22227 7.95945 7.1573 8.07764 7.11523C8.1958 7.07319 8.32153 7.05479 8.44678 7.06152ZM9.37158 18.3965C9.48412 19.8633 10.0781 21.252 11.062 22.3457C12.0461 23.4395 13.365 24.177 14.812 24.4434L15.0571 24.4883L15.0376 24.2402C14.9251 22.7734 14.331 21.3847 13.3472 20.291C12.3631 19.1972 11.0442 18.4597 9.59717 18.1934L9.35205 18.1475L9.37158 18.3965ZM18.3325 20.6846C17.5435 21.7122 17.0705 22.9475 16.9712 24.2393L16.9517 24.4873L17.1968 24.4424C18.3809 24.2274 19.4842 23.6939 20.3882 22.8994L20.5347 22.7705L20.4038 22.626L18.6274 20.6719L18.4722 20.502L18.3325 20.6846ZM9.35303 16.2402L9.51904 16.2627C10.8293 16.4371 12.0821 16.9126 13.1782 17.6514C14.2741 18.3901 15.1841 19.3726 15.8374 20.5215L16.0044 20.8154L16.1714 20.5205C16.4331 20.0589 16.7374 19.6224 17.0796 19.2168L17.188 19.0889L17.0747 18.9639L10.3462 11.5635L10.3091 11.5234L10.2573 11.5088L9.92041 11.4199C9.80718 11.3933 9.6931 11.3693 9.57861 11.3486L9.35303 11.3086V16.2402ZM16.0034 5.55078C16.1507 5.55078 16.2965 5.58449 16.4282 5.65039V5.65137C16.5459 5.70977 19.1634 7.04911 20.5952 9.72461L20.6724 9.86914L20.8267 9.81543C21.7204 9.50741 22.6596 9.35071 23.605 9.35059C23.8563 9.3507 24.0972 9.45024 24.2749 9.62793C24.4526 9.80562 24.5521 10.0466 24.5522 10.2979V17.8984C24.5513 18.2095 24.5339 18.5201 24.4995 18.8291L24.4595 19.1377C24.4268 19.363 24.3141 19.5696 24.1421 19.7188C23.9702 19.8677 23.7504 19.9488 23.5229 19.9492C23.4769 19.9488 23.4309 19.9459 23.3853 19.9395C23.1365 19.9033 22.9126 19.7698 22.7622 19.5684C22.6118 19.3669 22.5474 19.114 22.5835 18.8652C22.606 18.7096 22.6226 18.5533 22.6343 18.3965L22.6528 18.1475L22.4077 18.1934C22.3345 18.2069 22.2599 18.2208 22.186 18.2363L22.1802 18.2383C22.0574 18.2677 21.9297 18.2724 21.8052 18.252C21.6807 18.2315 21.5614 18.1862 21.4546 18.1191C21.3477 18.052 21.2556 17.9637 21.1831 17.8604C21.1106 17.757 21.0595 17.64 21.0327 17.5166C21.006 17.3932 21.0036 17.2657 21.0269 17.1416C21.0501 17.0175 21.098 16.8993 21.1675 16.7939C21.237 16.6886 21.3272 16.5985 21.4321 16.5283C21.5371 16.4582 21.6549 16.4097 21.7788 16.3857L21.7837 16.3848C22.0162 16.3344 22.2484 16.2912 22.4839 16.2627L22.6528 16.2422V11.3105L22.4272 11.3506C21.0516 11.5973 19.7906 12.2707 18.8218 13.2715L18.6323 13.4756C18.5493 13.5685 18.4486 13.6441 18.3364 13.6982C18.2242 13.7523 18.1024 13.784 17.978 13.791C17.7269 13.8052 17.4802 13.7192 17.2925 13.5518C17.1047 13.3841 16.9913 13.1478 16.9771 12.8965C16.963 12.6453 17.0488 12.3986 17.2163 12.2109C17.6932 11.6778 18.236 11.2072 18.8306 10.8096L18.9761 10.7119L18.8921 10.5576C18.0911 9.09921 16.8148 8.12082 16.1079 7.66113L16.0034 7.59375L15.8989 7.66211C15.3556 8.01676 14.85 8.42612 14.3901 8.88379H14.3892C14.2116 9.06187 13.9707 9.16272 13.7192 9.16309C13.4678 9.16344 13.2264 9.0633 13.0483 8.88574C12.8703 8.70818 12.7704 8.46727 12.77 8.21582C12.7697 7.9956 12.8457 7.78326 12.9839 7.61426L13.0464 7.54492C13.7935 6.79297 14.6471 6.15436 15.5796 5.65039C15.7112 5.5846 15.8563 5.55081 16.0034 5.55078Z" fill="black" stroke="white" stroke-width="0.384"/>
</svg>
