<svg width="33" height="32" viewBox="0 0 33 32" fill="none" xmlns="http://www.w3.org/2000/svg">
<path d="M21.7607 3.30273C25.7551 3.30273 29.001 6.54865 29.001 10.543V21.4629C29.001 23.3831 28.2376 25.2243 26.8799 26.582C25.5221 27.9398 23.6809 28.7031 21.7607 28.7031H10.8408C6.84651 28.7031 3.60059 25.4572 3.60059 21.4629V10.543C3.60059 8.6228 4.36392 6.78159 5.72168 5.42383C7.07944 4.06606 8.92065 3.30273 10.8408 3.30273H21.7607ZM22.4941 28.9658C22.4097 28.9741 22.3251 28.9799 22.2402 28.9854C22.3251 28.9799 22.4097 28.9741 22.4941 28.9658ZM10.1592 28.9707C10.1328 28.9683 10.1064 28.9665 10.0801 28.9639C10.1064 28.9665 10.1328 28.9683 10.1592 28.9707ZM22.8594 28.9209C22.7582 28.9358 22.6566 28.9482 22.5547 28.959C22.6566 28.9482 22.7582 28.9358 22.8594 28.9209ZM9.95215 28.9482C9.86683 28.9382 9.7817 28.9289 9.69727 28.916C9.7817 28.9289 9.86683 28.9382 9.95215 28.9482ZM23.1953 28.8633C23.1113 28.8796 23.027 28.8938 22.9424 28.9072C23.027 28.8938 23.1113 28.8796 23.1953 28.8633ZM9.61328 28.9014C9.52195 28.8864 9.43102 28.8708 9.34082 28.8525C9.43102 28.8708 9.52195 28.8864 9.61328 28.9014ZM23.5459 28.7861C23.4785 28.8026 23.4107 28.8174 23.3428 28.832C23.4107 28.8174 23.4785 28.8026 23.5459 28.7861ZM9.09766 28.7979C9.06312 28.7897 9.02849 28.7821 8.99414 28.7734C9.02849 28.7821 9.06312 28.7897 9.09766 28.7979ZM23.8916 28.6934C23.8274 28.7123 23.7629 28.7299 23.6982 28.7471C23.7629 28.7299 23.8274 28.7123 23.8916 28.6934ZM8.77441 28.7129C8.72688 28.6993 8.67898 28.6873 8.63184 28.6729C8.67898 28.6873 8.72688 28.6993 8.77441 28.7129ZM24.2295 28.585C24.1669 28.6066 24.1041 28.6274 24.041 28.6475C24.1041 28.6274 24.1669 28.6066 24.2295 28.585ZM8.44336 28.6104C8.39118 28.5928 8.33877 28.5763 8.28711 28.5576C8.33877 28.5762 8.39118 28.5928 8.44336 28.6104ZM24.5693 28.458C24.5084 28.4825 24.4473 28.5064 24.3857 28.5293C24.4473 28.5064 24.5084 28.4825 24.5693 28.458ZM8.08887 28.4814C8.04489 28.4642 8.00061 28.4478 7.95703 28.4297C8.00061 28.4478 8.04489 28.4642 8.08887 28.4814ZM24.8926 28.3193C24.831 28.3474 24.7693 28.3749 24.707 28.4014C24.7693 28.3749 24.831 28.3474 24.8926 28.3193ZM7.75293 28.3398C7.70892 28.32 7.66465 28.3009 7.62109 28.2803C7.66465 28.3009 7.70892 28.32 7.75293 28.3398ZM25.209 28.165C25.156 28.1923 25.1034 28.2201 25.0498 28.2461C25.1034 28.2201 25.156 28.1923 25.209 28.165ZM7.46777 28.2041C7.40395 28.1721 7.34012 28.1402 7.27734 28.1064C7.34012 28.1402 7.40395 28.1721 7.46777 28.2041ZM25.5273 27.9922C25.472 28.0241 25.4164 28.0555 25.3604 28.0859C25.4164 28.0555 25.472 28.0241 25.5273 27.9922ZM7.17773 28.0508C7.10915 28.0125 7.04088 27.9739 6.97363 27.9336C7.04088 27.9739 7.10915 28.0125 7.17773 28.0508ZM25.8223 27.8125C25.7709 27.8453 25.72 27.8786 25.668 27.9102C25.72 27.8786 25.771 27.8453 25.8223 27.8125ZM6.83594 27.8477C6.78385 27.8149 6.73189 27.782 6.68066 27.748C6.73189 27.782 6.78385 27.8149 6.83594 27.8477ZM26.0811 27.6396C26.0494 27.6618 26.0183 27.6844 25.9863 27.7061C26.0183 27.6844 26.0494 27.6618 26.0811 27.6396ZM6.51953 27.6377C6.48033 27.6102 6.441 27.5829 6.40234 27.5547C6.441 27.5829 6.48033 27.6102 6.51953 27.6377ZM26.8213 27.0527C26.645 27.2123 26.4617 27.3626 26.2725 27.5039C26.3628 27.4364 26.4516 27.3666 26.5391 27.2949L26.8213 27.0527ZM6.22168 27.418C6.18526 27.3897 6.14917 27.361 6.11328 27.332C6.14917 27.361 6.18526 27.3897 6.22168 27.418ZM5.97656 27.2197C5.92617 27.1771 5.8764 27.1338 5.82715 27.0898C5.8764 27.1338 5.92616 27.1771 5.97656 27.2197ZM5.69629 26.9707C5.65709 26.9341 5.61849 26.8968 5.58008 26.8594C5.61849 26.8968 5.65709 26.9341 5.69629 26.9707ZM27.5928 26.2412C27.5142 26.3371 27.4341 26.4321 27.3506 26.5244L27.0928 26.7949C27.2695 26.6182 27.4357 26.4329 27.5928 26.2412ZM10.5811 5.30273C9.26028 5.30273 7.9935 5.82779 7.05957 6.76172C6.12564 7.69565 5.60059 8.96242 5.60059 10.2832V21.7227C5.60059 24.4753 7.82837 26.7031 10.5811 26.7031H22.0205C23.3413 26.7031 24.6081 26.1781 25.542 25.2441C26.4759 24.3102 27.001 23.0434 27.001 21.7227V10.2832C27.001 7.53052 24.7732 5.30273 22.0205 5.30273H10.5811ZM5.41797 26.6963C5.38774 26.665 5.35782 26.6334 5.32812 26.6016C5.35782 26.6334 5.38774 26.665 5.41797 26.6963ZM5.19531 26.4561C5.1563 26.412 5.11807 26.3672 5.08008 26.3223C5.11807 26.3672 5.15629 26.412 5.19531 26.4561ZM9.97461 26.3613C10.0951 26.3769 10.2167 26.3903 10.3398 26.3965C10.2167 26.3903 10.0951 26.3769 9.97461 26.3613ZM22.4727 26.3799C22.4068 26.3863 22.3407 26.3919 22.2744 26.3955C22.3407 26.3919 22.4068 26.3863 22.4727 26.3799ZM22.7051 26.3516C22.6441 26.3606 22.5829 26.3684 22.5215 26.375C22.5829 26.3684 22.6441 26.3606 22.7051 26.3516ZM22.9082 26.3174C22.8547 26.3277 22.801 26.3363 22.7471 26.3447C22.801 26.3363 22.8547 26.3277 22.9082 26.3174ZM23.1494 26.2637C23.0989 26.2762 23.0481 26.2879 22.9971 26.2988C23.0481 26.2879 23.0989 26.2762 23.1494 26.2637ZM9.49707 26.2754C9.47491 26.2701 9.4527 26.2653 9.43066 26.2598C9.4527 26.2653 9.47491 26.2701 9.49707 26.2754ZM23.3691 26.2031C23.3073 26.2217 23.2453 26.2398 23.1826 26.2559C23.2453 26.2398 23.3073 26.2217 23.3691 26.2031ZM9.31445 26.2285C9.27589 26.2177 9.23737 26.2071 9.19922 26.1953C9.23737 26.2071 9.27589 26.2177 9.31445 26.2285ZM4.97266 26.1924C4.93392 26.1444 4.89597 26.0958 4.8584 26.0469C4.89597 26.0958 4.93392 26.1444 4.97266 26.1924ZM9.13965 26.1758C9.08792 26.1591 9.03628 26.1425 8.98535 26.124C9.03628 26.1425 9.08791 26.1591 9.13965 26.1758ZM23.791 26.0547C23.7384 26.0762 23.6853 26.0966 23.6318 26.1162C23.6853 26.0966 23.7384 26.0762 23.791 26.0547ZM8.89648 26.0898C8.85785 26.075 8.81938 26.0598 8.78125 26.0439C8.81939 26.0598 8.85784 26.075 8.89648 26.0898ZM23.9785 25.9727C23.9336 25.9933 23.8883 26.013 23.8428 26.0322C23.8883 26.013 23.9336 25.9933 23.9785 25.9727ZM8.67188 25.9961C8.64085 25.9822 8.60977 25.9686 8.5791 25.9541C8.60977 25.9686 8.64085 25.9822 8.67188 25.9961ZM24.168 25.8799C24.1289 25.9001 24.0894 25.9194 24.0498 25.9385C24.0894 25.9194 24.1289 25.9001 24.168 25.8799ZM4.75391 25.9082C4.7186 25.86 4.68457 25.8108 4.65039 25.7617C4.68457 25.8108 4.71859 25.86 4.75391 25.9082ZM8.45117 25.8906C8.43198 25.8808 8.4126 25.8714 8.39355 25.8613C8.4126 25.8714 8.43198 25.8808 8.45117 25.8906ZM24.3701 25.7695C24.3334 25.7908 24.296 25.8108 24.2588 25.8311C24.296 25.8108 24.3334 25.7908 24.3701 25.7695ZM8.25586 25.7852C8.23269 25.7719 8.20944 25.7588 8.18652 25.7451C8.20944 25.7588 8.23269 25.7719 8.25586 25.7852ZM25.1621 25.1924C24.9396 25.3939 24.6992 25.5718 24.4453 25.7256C24.6338 25.6114 24.8145 25.4835 24.9863 25.3428L25.1621 25.1924ZM8.07617 25.6768C8.05267 25.6619 8.02907 25.6471 8.00586 25.6318C8.02907 25.6471 8.05267 25.6619 8.07617 25.6768ZM4.54297 25.6045C4.51106 25.5561 4.48003 25.5072 4.44922 25.458C4.48003 25.5072 4.51106 25.5561 4.54297 25.6045ZM7.88574 25.5498C7.8638 25.5343 7.84197 25.5188 7.82031 25.5029C7.84197 25.5188 7.86381 25.5343 7.88574 25.5498ZM7.72656 25.4326C7.69771 25.4104 7.66894 25.3881 7.64062 25.3652C7.66894 25.3881 7.69771 25.4104 7.72656 25.4326ZM28.5781 24.6846C28.5257 24.7955 28.4709 24.9053 28.4131 25.0137L28.2314 25.334C28.3576 25.123 28.4733 24.9063 28.5781 24.6846ZM4.36719 25.3252C4.32999 25.263 4.29423 25.2 4.25879 25.1367C4.29424 25.2 4.32999 25.263 4.36719 25.3252ZM7.54785 25.2871C7.5199 25.2633 7.49222 25.2393 7.46484 25.2148C7.49221 25.2393 7.51991 25.2633 7.54785 25.2871ZM7.40234 25.1572C7.36954 25.1269 7.3366 25.0967 7.30469 25.0654C7.3366 25.0967 7.36955 25.1269 7.40234 25.1572ZM25.5264 24.8213C25.6128 24.7235 25.6949 24.6226 25.7725 24.5186C25.6949 24.6226 25.6128 24.7235 25.5264 24.8213ZM4.18652 25.0049C4.16027 24.9557 4.13457 24.9063 4.10938 24.8564C4.13457 24.9063 4.16027 24.9557 4.18652 25.0049ZM7.22168 24.9814C7.18896 24.9477 7.1567 24.9136 7.125 24.8789C7.1567 24.9136 7.18896 24.9477 7.22168 24.9814ZM7.0918 24.8418C7.0638 24.8105 7.03595 24.7791 7.00879 24.7471C7.03594 24.7791 7.06381 24.8105 7.0918 24.8418ZM4.01758 24.6709C3.99684 24.6269 3.97694 24.5825 3.95703 24.5381C3.97694 24.5825 3.99683 24.6269 4.01758 24.6709ZM6.91797 24.6367C6.90438 24.6197 6.89129 24.6022 6.87793 24.585C6.89128 24.6022 6.90438 24.6197 6.91797 24.6367ZM6.80176 24.4854C6.77957 24.455 6.7578 24.4244 6.73633 24.3936C6.7578 24.4244 6.77957 24.455 6.80176 24.4854ZM3.875 24.3486C3.84778 24.2831 3.82228 24.2168 3.79688 24.1504C3.82228 24.2168 3.84778 24.2831 3.875 24.3486ZM6.6748 24.3027C6.64955 24.2646 6.62572 24.2255 6.60156 24.1865C6.62571 24.2255 6.64956 24.2646 6.6748 24.3027ZM6.56348 24.126C6.53958 24.0861 6.51687 24.0455 6.49414 24.0049C6.51686 24.0455 6.53959 24.0861 6.56348 24.126ZM26.1299 23.96C26.1128 23.9913 26.0959 24.0227 26.0781 24.0537C26.0959 24.0227 26.1128 23.9913 26.1299 23.96ZM3.74121 24.002C3.72511 23.957 3.71058 23.9115 3.69531 23.8662C3.71058 23.9115 3.72511 23.957 3.74121 24.002ZM6.38184 23.793C6.34792 23.7243 6.31575 23.6546 6.28516 23.584C6.31573 23.6546 6.34793 23.7242 6.38184 23.793ZM26.2393 23.7461C26.2173 23.7919 26.1953 23.8377 26.1719 23.8828C26.1953 23.8377 26.2173 23.7919 26.2393 23.7461ZM26.3301 23.5459C26.3136 23.5848 26.2968 23.6236 26.2793 23.6621C26.2968 23.6236 26.3136 23.5848 26.3301 23.5459ZM3.625 23.6514C3.60901 23.5987 3.59494 23.5454 3.58008 23.4922C3.59494 23.5454 3.60901 23.5987 3.625 23.6514ZM6.25586 23.5137C6.23883 23.4726 6.22193 23.4313 6.20605 23.3896C6.22193 23.4313 6.23884 23.4726 6.25586 23.5137ZM26.4141 23.333C26.3974 23.3783 26.3793 23.423 26.3613 23.4678C26.3793 23.423 26.3975 23.3783 26.4141 23.333ZM6.05566 22.9209C6.09113 23.0555 6.13186 23.1878 6.17871 23.3174C6.13184 23.1878 6.09115 23.0555 6.05566 22.9209ZM3.52734 23.3008C3.51193 23.2394 3.49925 23.1772 3.48535 23.1152C3.49925 23.1772 3.51193 23.2394 3.52734 23.3008ZM26.4873 23.1152C26.4715 23.166 26.455 23.2165 26.4375 23.2666C26.455 23.2165 26.4715 23.166 26.4873 23.1152ZM26.5508 22.8936C26.5363 22.9496 26.5204 23.0052 26.5039 23.0605C26.5204 23.0052 26.5363 22.9496 26.5508 22.8936ZM3.44629 22.9404C3.43758 22.8967 3.4308 22.8526 3.42285 22.8086C3.4308 22.8526 3.43758 22.8967 3.44629 22.9404ZM6.03223 22.8311C5.96375 22.5486 5.92095 22.2561 5.90625 21.9561L5.90039 21.7227C5.90039 22.1045 5.94618 22.4759 6.03223 22.8311ZM26.5967 22.6992C26.5865 22.7469 26.5761 22.7945 26.5645 22.8418C26.5761 22.7945 26.5865 22.7469 26.5967 22.6992ZM26.6104 22.6406C26.6064 22.6603 26.6009 22.6796 26.5967 22.6992C26.6039 22.6654 26.6117 22.6317 26.6182 22.5977L26.6104 22.6406ZM3.30078 21.4629C3.30078 21.8438 3.32911 22.2182 3.38379 22.584C3.32911 22.2182 3.30078 21.8438 3.30078 21.4629ZM26.6953 21.9551C26.6849 22.1645 26.66 22.3719 26.6221 22.5762C26.646 22.4471 26.6647 22.3168 26.6777 22.1855L26.6953 21.9551ZM16.3008 22.5029L15.999 22.4961C15.9954 22.4959 15.9919 22.4953 15.9883 22.4951C16.0921 22.5001 16.1963 22.5029 16.3008 22.5029ZM16.6123 22.4951C16.5088 22.5001 16.4049 22.5029 16.3008 22.5029C16.4049 22.5029 16.5088 22.5001 16.6123 22.4951ZM15.876 22.4873C15.8091 22.4829 15.7423 22.4781 15.6758 22.4717C15.7423 22.4781 15.8091 22.4829 15.876 22.4873ZM16.9248 22.4717C16.8582 22.4781 16.7915 22.4829 16.7246 22.4873C16.7915 22.4829 16.8582 22.4781 16.9248 22.4717ZM15.5752 22.46C15.505 22.4521 15.4349 22.4447 15.3652 22.4346C15.4349 22.4447 15.505 22.4521 15.5752 22.46ZM17.2354 22.4346C17.1656 22.4447 17.0955 22.4521 17.0254 22.46C17.0955 22.4521 17.1656 22.4447 17.2354 22.4346ZM15.2119 22.4092C15.1682 22.4017 15.1246 22.3941 15.0811 22.3857C15.1246 22.3941 15.1682 22.4017 15.2119 22.4092ZM17.5195 22.3857C17.476 22.3941 17.4324 22.4018 17.3887 22.4092C17.4324 22.4018 17.476 22.3941 17.5195 22.3857ZM14.9033 22.3486C14.8563 22.3383 14.8094 22.3278 14.7627 22.3164C14.8094 22.3278 14.8563 22.3383 14.9033 22.3486ZM17.8379 22.3164C17.7912 22.3278 17.7443 22.3383 17.6973 22.3486C17.7443 22.3383 17.7912 22.3278 17.8379 22.3164ZM14.6484 22.2871C14.5805 22.2692 14.5126 22.2515 14.4453 22.2314C14.5126 22.2515 14.5805 22.2692 14.6484 22.2871ZM18.1553 22.2314C18.088 22.2515 18.0201 22.2692 17.9521 22.2871C18.0201 22.2693 18.088 22.2515 18.1553 22.2314ZM14.3564 22.2041C14.2877 22.1825 14.2194 22.1596 14.1514 22.1357C14.2194 22.1596 14.2877 22.1825 14.3564 22.2041ZM18.4492 22.1357C18.3812 22.1596 18.3129 22.1825 18.2441 22.2041C18.3129 22.1825 18.3812 22.1596 18.4492 22.1357ZM16.3008 9.80273C17.9451 9.80273 19.5218 10.4564 20.6846 11.6191C21.8473 12.7819 22.501 14.3586 22.501 16.0029C22.501 17.6473 21.8473 19.224 20.6846 20.3867C19.5218 21.5494 17.9451 22.2031 16.3008 22.2031C14.6564 22.2031 13.0797 21.5494 11.917 20.3867C10.7543 19.224 10.1006 17.6473 10.1006 16.0029C10.1006 14.3586 10.7543 12.7819 11.917 11.6191C13.0797 10.4564 14.6564 9.80273 16.3008 9.80273ZM14.0615 22.1035C13.997 22.0798 13.9329 22.055 13.8691 22.0293C13.9329 22.055 13.997 22.0798 14.0615 22.1035ZM18.7314 22.0293C18.6677 22.055 18.6036 22.0798 18.5391 22.1035C18.6036 22.0798 18.6677 22.055 18.7314 22.0293ZM13.749 21.9795C13.7035 21.96 13.6584 21.9394 13.6133 21.9189C13.6584 21.9394 13.7034 21.96 13.749 21.9795ZM18.9873 21.9189C18.9425 21.9393 18.8978 21.9601 18.8525 21.9795C18.8978 21.9601 18.9424 21.9393 18.9873 21.9189ZM13.4648 21.8496C13.4214 21.8285 13.378 21.8072 13.335 21.7852C13.378 21.8072 13.4214 21.8285 13.4648 21.8496ZM19.2656 21.7852C19.2226 21.8072 19.1792 21.8285 19.1357 21.8496C19.1792 21.8285 19.2226 21.8072 19.2656 21.7852ZM13.1855 21.7061C13.1505 21.6869 13.1158 21.6673 13.0811 21.6475C13.1158 21.6673 13.1505 21.6869 13.1855 21.7061ZM19.5195 21.6475C19.4848 21.6673 19.4501 21.6869 19.415 21.7061C19.4501 21.6869 19.4848 21.6673 19.5195 21.6475ZM12.9189 21.5527C12.8903 21.5353 12.8623 21.5169 12.834 21.499C12.8623 21.5169 12.8903 21.5353 12.9189 21.5527ZM19.7666 21.499C19.7385 21.5168 19.711 21.5354 19.6826 21.5527C19.711 21.5354 19.7385 21.5168 19.7666 21.499ZM12.6338 21.3691C12.4763 21.2615 12.323 21.1471 12.1748 21.0254C12.323 21.1471 12.4763 21.2615 12.6338 21.3691ZM20.0137 21.335C20.1544 21.237 20.2926 21.1348 20.4258 21.0254C20.2926 21.1348 20.1544 21.237 20.0137 21.335ZM11.9385 20.8213C12.0158 20.8913 12.0945 20.9594 12.1748 21.0254C12.0945 20.9594 12.0158 20.8913 11.9385 20.8213ZM11.0762 19.8701C11.2028 20.0412 11.3385 20.2063 11.4824 20.3652C11.4106 20.2859 11.3401 20.2055 11.2725 20.123L11.0762 19.8701ZM21.5254 19.8701C21.3988 20.0412 21.264 20.2072 21.1201 20.3662C21.1922 20.2866 21.2613 20.2048 21.3291 20.1221L21.5254 19.8701ZM16.3008 11.8027C15.1869 11.8027 14.1187 12.2456 13.3311 13.0332C12.5434 13.8209 12.1006 14.889 12.1006 16.0029C12.1006 17.1168 12.5434 18.185 13.3311 18.9727C14.1187 19.7603 15.1869 20.2031 16.3008 20.2031C17.4147 20.2031 18.4829 19.7603 19.2705 18.9727C20.0582 18.185 20.501 17.1168 20.501 16.0029C20.501 14.889 20.0582 13.8209 19.2705 13.0332C18.4829 12.2456 17.4147 11.8027 16.3008 11.8027ZM15.7295 19.8604C15.8544 19.8788 15.9804 19.8921 16.1074 19.8984L15.9277 19.8857C15.8613 19.8794 15.7953 19.8701 15.7295 19.8604ZM16.6758 19.8838C16.5516 19.8958 16.4266 19.9033 16.3008 19.9033C16.4266 19.9033 16.5516 19.8958 16.6758 19.8838ZM15.6807 19.8525C15.6379 19.8456 15.5952 19.8384 15.5527 19.8301C15.5952 19.8384 15.6379 19.8456 15.6807 19.8525ZM17.0596 19.8271C17.0161 19.8358 16.9725 19.8434 16.9287 19.8506C16.9725 19.8434 17.0161 19.8358 17.0596 19.8271ZM17.2412 19.7871C17.1872 19.8006 17.1328 19.8121 17.0781 19.8232C17.1328 19.8121 17.1872 19.8005 17.2412 19.7871ZM15.4912 19.8164C15.4461 19.8068 15.4011 19.7973 15.3564 19.7861C15.4011 19.7973 15.4461 19.8068 15.4912 19.8164ZM15.3379 19.7812C15.2825 19.7671 15.2275 19.7519 15.1729 19.7354C15.2275 19.7519 15.2825 19.7671 15.3379 19.7812ZM17.416 19.7393C17.3675 19.7538 17.3186 19.7667 17.2695 19.7793C17.3186 19.7667 17.3675 19.7537 17.416 19.7393ZM15.1504 19.7285C15.1045 19.7143 15.059 19.6994 15.0137 19.6836C15.059 19.6994 15.1045 19.7144 15.1504 19.7285ZM17.5801 19.6865C17.5417 19.6999 17.5027 19.7115 17.4639 19.7236C17.5027 19.7115 17.5417 19.6999 17.5801 19.6865ZM14.9434 19.6582C14.9096 19.6457 14.8761 19.6326 14.8428 19.6191C14.8761 19.6326 14.9096 19.6457 14.9434 19.6582ZM17.7432 19.625C17.7156 19.636 17.688 19.6469 17.6602 19.6572C17.688 19.6469 17.7156 19.636 17.7432 19.625ZM10.2949 18.4902C10.4162 18.7832 10.5595 19.067 10.7227 19.3398L10.8926 19.6094C10.6569 19.2559 10.4567 18.881 10.2949 18.4902ZM22.0352 19.0645C21.9854 19.1578 21.9333 19.2499 21.8789 19.3408L21.709 19.6094C21.8269 19.4326 21.9355 19.2503 22.0352 19.0635V19.0645ZM14.7588 19.584C14.7323 19.5726 14.7059 19.5608 14.6797 19.5488C14.7059 19.5608 14.7323 19.5726 14.7588 19.584ZM17.8984 19.5586C17.8812 19.5664 17.8641 19.5745 17.8467 19.582C17.8641 19.5745 17.8812 19.5664 17.8984 19.5586ZM14.6055 19.5146C14.5697 19.4974 14.5343 19.4793 14.499 19.4609C14.5343 19.4793 14.5697 19.4974 14.6055 19.5146ZM18.084 19.4697C18.0564 19.4839 18.0289 19.4982 18.001 19.5117C18.0289 19.4982 18.0564 19.4839 18.084 19.4697ZM14.4365 19.4277C14.403 19.4095 14.3699 19.3903 14.3369 19.3711C14.3699 19.3903 14.403 19.4095 14.4365 19.4277ZM18.251 19.3789C18.2222 19.3956 18.1932 19.4118 18.1641 19.4277C18.1933 19.4119 18.2222 19.3955 18.251 19.3789ZM18.5508 19.1865C18.6294 19.131 18.7066 19.0732 18.7812 19.0117L18.7725 19.0195C18.7007 19.0783 18.6262 19.1332 18.5508 19.1865ZM14.2773 19.3359C14.2523 19.3208 14.2278 19.3048 14.2031 19.2891C14.2278 19.3048 14.2523 19.3208 14.2773 19.3359ZM13.4092 18.6201C13.4525 18.668 13.4971 18.7149 13.543 18.7607C13.6774 18.8952 13.8209 19.0186 13.9717 19.1309C13.8209 19.0186 13.6774 18.8952 13.543 18.7607C13.4971 18.7149 13.4525 18.668 13.4092 18.6201ZM19.4287 18.3311C19.3163 18.482 19.1933 18.6261 19.0586 18.7607C19.1933 18.6261 19.3163 18.482 19.4287 18.3311ZM19.6338 18.0254C19.6199 18.0483 19.6061 18.0712 19.5918 18.0938C19.6061 18.0712 19.6199 18.0483 19.6338 18.0254ZM19.7256 17.8662C19.7073 17.8998 19.6882 17.9328 19.6689 17.9658C19.6882 17.9328 19.7073 17.8998 19.7256 17.8662ZM19.8125 17.6973C19.7962 17.731 19.7799 17.7646 19.7627 17.7979C19.7799 17.7646 19.7962 17.731 19.8125 17.6973ZM19.8818 17.5439C19.8723 17.5661 19.8634 17.5884 19.8535 17.6104C19.8634 17.5884 19.8723 17.5661 19.8818 17.5439ZM19.9561 17.3594C19.9435 17.3931 19.9304 17.4266 19.917 17.46C19.9304 17.4266 19.9435 17.3931 19.9561 17.3594ZM20.0264 17.1523C20.0135 17.1942 20.0006 17.236 19.9863 17.2773C20.0006 17.236 20.0135 17.1942 20.0264 17.1523ZM20.0762 16.9746C20.0628 17.0267 20.0487 17.0785 20.0332 17.1299C20.0487 17.0785 20.0628 17.0267 20.0762 16.9746ZM20.1582 16.5703C20.1764 16.4467 20.1901 16.322 20.1963 16.1963C20.1901 16.322 20.1764 16.4467 20.1582 16.5703ZM20.1816 15.625C20.1938 15.7501 20.2012 15.8761 20.2012 16.0029C20.2012 15.8762 20.1938 15.7501 20.1816 15.625ZM12.5693 14.8691C12.5325 14.9904 12.5015 15.1136 12.4766 15.2383H12.4756C12.488 15.176 12.5031 15.1142 12.5186 15.0527C12.5341 14.9908 12.5508 14.9292 12.5693 14.8682V14.8691ZM20.127 15.2539C20.1339 15.2893 20.1405 15.3247 20.1465 15.3604C20.1405 15.3247 20.1339 15.2893 20.127 15.2539ZM19.9844 14.7227C19.9977 14.7611 20.0093 14.8 20.0215 14.8389C20.0093 14.8 19.9977 14.7611 19.9844 14.7227ZM19.9229 14.5596C19.9339 14.5871 19.9447 14.6148 19.9551 14.6426C19.9447 14.6148 19.9338 14.5871 19.9229 14.5596ZM19.8564 14.4043C19.8642 14.4216 19.8724 14.4387 19.8799 14.4561C19.8724 14.4387 19.8642 14.4216 19.8564 14.4043ZM19.7676 14.2188C19.7818 14.2463 19.796 14.2739 19.8096 14.3018C19.796 14.2739 19.7818 14.2463 19.7676 14.2188ZM19.6816 14.0615C19.6964 14.0872 19.7114 14.1127 19.7256 14.1387C19.7114 14.1127 19.6964 14.0872 19.6816 14.0615ZM19.5039 13.7793C19.4428 13.6913 19.3781 13.6055 19.3096 13.5225L19.3174 13.5312C19.3831 13.6115 19.445 13.6945 19.5039 13.7793ZM10.7227 12.666C10.5595 12.9388 10.4162 13.2227 10.2949 13.5156C10.4163 13.2224 10.5593 12.9381 10.7227 12.665V12.666ZM21.709 12.3965C21.9446 12.75 22.1449 13.1248 22.3066 13.5156C22.1853 13.2227 22.0421 12.9388 21.8789 12.666L21.709 12.3965ZM13.6836 13.1113C13.6357 13.1546 13.5888 13.1993 13.543 13.2451C13.4973 13.2908 13.4533 13.3381 13.4102 13.3857C13.4533 13.338 13.4973 13.2908 13.543 13.2451C13.5888 13.1993 13.6357 13.1547 13.6836 13.1113ZM18.918 13.1123V13.1113V13.1123ZM15.3506 12.2207C15.2889 12.2362 15.2277 12.253 15.167 12.2715L14.9854 12.3311C15.105 12.2882 15.227 12.2518 15.3506 12.2207ZM17.0654 12.1787V12.1777C17.1277 12.1902 17.1895 12.2052 17.251 12.2207C17.3129 12.2363 17.3745 12.2529 17.4355 12.2715L17.6162 12.3311C17.437 12.2669 17.2529 12.2162 17.0654 12.1787ZM12.4336 10.7783C12.1769 10.9683 11.9327 11.1777 11.7041 11.4062C11.5516 11.5587 11.4079 11.7184 11.2725 11.8838L11.0762 12.1357C11.2662 11.879 11.4755 11.6348 11.7041 11.4062C11.8564 11.2539 12.0155 11.1099 12.1807 10.9746L12.4336 10.7783ZM20.168 10.7783C20.3391 10.905 20.5051 11.0397 20.6641 11.1836C20.7436 11.2556 20.8212 11.33 20.8975 11.4062C20.9737 11.4825 21.0481 11.5601 21.1201 11.6396C21.192 11.719 21.2615 11.8003 21.3291 11.8828L21.5254 12.1357C21.3354 11.879 21.126 11.6348 20.8975 11.4062C20.745 11.2538 20.5853 11.1101 20.4199 10.9746L20.168 10.7783ZM23.2783 10.7949C23.2279 10.7997 23.1771 10.8027 23.126 10.8027C23.1771 10.8027 23.2279 10.7997 23.2783 10.7949ZM22.9648 10.7949C22.9181 10.7903 22.8721 10.7821 22.8262 10.7734C22.8721 10.7821 22.9181 10.7903 22.9648 10.7949ZM23.4199 10.7744C23.3908 10.7798 23.3615 10.7843 23.332 10.7881C23.3615 10.7843 23.3908 10.7798 23.4199 10.7744ZM22.7803 10.7637C22.7432 10.7556 22.7063 10.747 22.6699 10.7363C22.7063 10.747 22.7432 10.7556 22.7803 10.7637ZM23.5723 10.7383C23.5439 10.7464 23.5152 10.7532 23.4863 10.7598C23.5152 10.7532 23.5439 10.7464 23.5723 10.7383ZM22.6426 10.7285C22.6092 10.7181 22.5765 10.7059 22.5439 10.6934C22.5765 10.7059 22.6092 10.7181 22.6426 10.7285ZM23.6953 10.6973C23.6777 10.7039 23.6604 10.7108 23.6426 10.7168C23.6604 10.7108 23.6777 10.7039 23.6953 10.6973ZM22.4658 10.6611C22.4916 10.6726 22.5176 10.6832 22.5439 10.6934C22.5176 10.6833 22.4916 10.6726 22.4658 10.6611ZM23.8516 10.6299C23.829 10.6412 23.8062 10.6519 23.7832 10.6621C23.8063 10.6519 23.829 10.6412 23.8516 10.6299ZM22.4658 10.6611C22.4339 10.6469 22.4021 10.6325 22.3711 10.6162C22.4021 10.6325 22.4339 10.6469 22.4658 10.6611ZM22.3418 10.5996C22.3093 10.5817 22.2773 10.5631 22.2461 10.543C22.2773 10.5631 22.3093 10.5817 22.3418 10.5996ZM23.9736 10.5615C23.9523 10.5746 23.931 10.5876 23.9092 10.5996C23.931 10.5876 23.9523 10.5746 23.9736 10.5615ZM13.8135 9.99707C13.5205 10.1184 13.2367 10.2616 12.9639 10.4248L12.6943 10.5947C13.0479 10.3591 13.4227 10.1588 13.8135 9.99707ZM19.9072 10.5947C19.5538 10.359 19.1788 10.1589 18.7881 9.99707C19.0813 10.1184 19.3656 10.2615 19.6387 10.4248L19.9072 10.5947ZM22.0957 10.4346C22.1309 10.4634 22.1678 10.4899 22.2051 10.5156C22.2006 10.5126 22.1958 10.51 22.1914 10.5068L22.0957 10.4346ZM23.126 7.85254C23.4773 7.85259 23.8141 7.99277 24.0625 8.24121C24.3109 8.48965 24.4511 8.82639 24.4512 9.17773C24.4512 9.52915 24.311 9.86675 24.0625 10.1152C23.8141 10.3635 23.4772 10.5029 23.126 10.5029C22.7746 10.5029 22.437 10.3637 22.1885 10.1152C21.94 9.86675 21.8008 9.52915 21.8008 9.17773C21.8008 8.82653 21.9402 8.48962 22.1885 8.24121C22.437 7.99273 22.7746 7.85254 23.126 7.85254ZM24.3691 10.2236L24.2744 10.3271C24.3089 10.2927 24.3411 10.2559 24.3721 10.2188C24.3709 10.2202 24.3703 10.2222 24.3691 10.2236ZM26.6953 10.042L26.7012 10.2832C26.7012 10.1271 26.6926 9.9725 26.6777 9.82031C26.6849 9.89375 26.6915 9.96759 26.6953 10.042ZM21.8506 10.1836C21.8265 10.153 21.803 10.122 21.7812 10.0898C21.803 10.122 21.8264 10.153 21.8506 10.1836ZM24.4678 10.0908C24.4529 10.1126 24.4378 10.1342 24.4219 10.1553C24.4378 10.1342 24.4529 10.1126 24.4678 10.0908ZM5.99121 9.36523C5.96121 9.51525 5.93904 9.66717 5.92383 9.82031H5.92285C5.93045 9.74376 5.94083 9.66763 5.95215 9.5918C5.96345 9.51621 5.97627 9.44096 5.99121 9.36621V9.36523ZM21.751 10.042C21.7339 10.0148 21.7176 9.98714 21.7021 9.95898C21.7176 9.98713 21.7339 10.0148 21.751 10.042ZM24.543 9.96973C24.5323 9.98883 24.5212 10.0077 24.5098 10.0264C24.5212 10.0077 24.5323 9.98884 24.543 9.96973ZM21.6777 9.91309C21.6639 9.88578 21.651 9.85811 21.6387 9.83008C21.651 9.8581 21.6639 9.88579 21.6777 9.91309ZM24.6113 9.83301C24.601 9.85647 24.5896 9.87939 24.5781 9.90234C24.5896 9.87938 24.601 9.85648 24.6113 9.83301ZM26.6631 9.69922C26.6681 9.73948 26.6738 9.77974 26.6777 9.82031C26.6738 9.77974 26.6681 9.73948 26.6631 9.69922ZM17.8848 9.69922H17.8857H17.8848ZM21.6143 9.77246C21.6011 9.73901 21.589 9.70518 21.5781 9.6709C21.589 9.70517 21.6011 9.73901 21.6143 9.77246ZM24.668 9.68555C24.6583 9.71482 24.648 9.7438 24.6367 9.77246C24.648 9.74379 24.6583 9.71483 24.668 9.68555ZM26.6064 9.33887C26.5753 9.18663 26.5367 9.03707 26.4912 8.89062C26.5367 9.03707 26.5753 9.18662 26.6064 9.33887ZM24.7178 9.50293C24.7091 9.54519 24.6975 9.58661 24.6855 9.62793C24.6975 9.58661 24.7091 9.54519 24.7178 9.50293ZM21.501 9.17773C21.501 9.12633 21.503 9.07515 21.5078 9.02441C21.503 9.07516 21.501 9.12633 21.501 9.17773ZM6.1748 8.70508C6.12345 8.84848 6.0792 8.99451 6.04199 9.14258C6.06061 9.06853 6.08035 8.99482 6.10254 8.92188L6.1748 8.70508ZM21.5146 8.9707C21.5184 8.94124 21.5229 8.91193 21.5283 8.88281C21.5229 8.91194 21.5184 8.94123 21.5146 8.9707ZM21.543 8.81641C21.5496 8.78758 21.5563 8.75884 21.5645 8.73047C21.5563 8.75885 21.5496 8.78757 21.543 8.81641ZM21.5869 8.66016C21.5929 8.64248 21.5989 8.62487 21.6055 8.60742C21.5989 8.62488 21.5929 8.64248 21.5869 8.66016ZM21.6406 8.51953C21.6495 8.49943 21.6592 8.47969 21.6689 8.45996C21.6592 8.4797 21.6495 8.49943 21.6406 8.51953ZM21.7051 8.3916C21.7167 8.37056 21.7286 8.34964 21.7412 8.3291C21.7286 8.34965 21.7167 8.37055 21.7051 8.3916ZM24.1709 7.93457L24.2744 8.0293C24.2397 7.99458 24.2034 7.96186 24.166 7.93066C24.1676 7.932 24.1693 7.93323 24.1709 7.93457ZM22.3604 7.74414C22.267 7.79398 22.1783 7.85319 22.0957 7.9209C22.1783 7.85322 22.267 7.79401 22.3604 7.74414ZM24.0449 7.83887C24.0629 7.85126 24.0801 7.86479 24.0977 7.87793C24.0801 7.86481 24.063 7.85124 24.0449 7.83887ZM23.9189 7.76074C23.9411 7.77317 23.9628 7.78633 23.9844 7.7998C23.9628 7.78635 23.9411 7.77315 23.9189 7.76074ZM23.7842 7.69336C23.8056 7.70289 23.8266 7.71317 23.8477 7.72363C23.8266 7.7132 23.8056 7.70287 23.7842 7.69336ZM23.6357 7.63574C23.6664 7.6459 23.6966 7.65698 23.7266 7.66895C23.6966 7.65702 23.6664 7.64587 23.6357 7.63574ZM23.498 7.59766C23.5229 7.60353 23.5478 7.60918 23.5723 7.61621C23.5477 7.6092 23.5229 7.60351 23.498 7.59766ZM4.37012 6.67188C4.24393 6.88281 4.12822 7.09955 4.02344 7.32129C4.07584 7.21036 4.13068 7.10052 4.18848 6.99219L4.37012 6.67188ZM23.4131 5.8125C23.2666 5.76702 23.1171 5.72838 22.9648 5.69727C23.1171 5.72839 23.2666 5.767 23.4131 5.8125ZM6.33691 4.49512C6.04562 4.71205 5.76867 4.95106 5.50879 5.21094C5.33206 5.38767 5.16582 5.573 5.00879 5.76465C5.16582 5.57298 5.33205 5.38768 5.50879 5.21094C5.76868 4.95105 6.04558 4.71206 6.33691 4.49512ZM9.44043 5.74414C9.36629 5.76277 9.29276 5.78346 9.21973 5.80566L9.00293 5.87695C9.14634 5.82557 9.29236 5.78137 9.44043 5.74414ZM9.88965 5.6543C9.73817 5.67694 9.58829 5.70696 9.44043 5.74414C9.58828 5.70699 9.73817 5.67691 9.88965 5.6543ZM22.4824 5.625C22.4981 5.62653 22.5137 5.6282 22.5293 5.62988C22.5137 5.6282 22.4981 5.62653 22.4824 5.625ZM22.2617 5.6084C22.3358 5.61215 22.4093 5.61786 22.4824 5.625C22.3306 5.61017 22.1763 5.60254 22.0205 5.60254L22.2617 5.6084ZM6.44141 4.41992C6.49954 4.37815 6.55797 4.33691 6.61719 4.29688C6.55798 4.33691 6.49954 4.37815 6.44141 4.41992ZM6.74805 4.21191C6.80892 4.17257 6.86973 4.13324 6.93164 4.0957C6.86973 4.13324 6.80892 4.17257 6.74805 4.21191ZM7.04297 4.03027C7.11152 3.99031 7.18029 3.95084 7.25 3.91309C7.18029 3.95084 7.11151 3.99031 7.04297 4.03027ZM7.36328 3.85449C7.43126 3.81915 7.49937 3.78421 7.56836 3.75098C7.49938 3.78421 7.43125 3.81915 7.36328 3.85449ZM7.67383 3.70117C7.75295 3.66455 7.83275 3.62955 7.91309 3.5957C7.83276 3.62955 7.75295 3.66455 7.67383 3.70117ZM8.00195 3.55859C8.07835 3.52754 8.15504 3.49728 8.23242 3.46875C8.15504 3.49728 8.07834 3.52754 8.00195 3.55859ZM8.34082 3.42969C8.42162 3.40129 8.5032 3.37525 8.58496 3.34961C8.5032 3.37525 8.42161 3.40129 8.34082 3.42969ZM8.68164 3.31934C8.76357 3.29484 8.84591 3.27171 8.92871 3.25C8.84592 3.27171 8.76357 3.29485 8.68164 3.31934ZM9.03223 3.22363C9.11966 3.20203 9.20762 3.18255 9.2959 3.16406C9.20762 3.18255 9.11965 3.20203 9.03223 3.22363ZM10.4668 3.01172C10.1006 3.02989 9.73807 3.07525 9.38184 3.14551C9.62467 3.09761 9.87031 3.06096 10.1182 3.03711L10.4668 3.01172ZM23.5752 26.1357C23.5128 26.1577 23.4501 26.1789 23.3867 26.1982C23.4501 26.1789 23.5128 26.1577 23.5752 26.1357ZM26.0215 24.1504C25.9902 24.2019 25.9571 24.2524 25.9238 24.3027C25.9571 24.2524 25.9902 24.2019 26.0215 24.1504ZM25.9053 24.3311C25.866 24.3896 25.8252 24.4471 25.7832 24.5039C25.8252 24.4471 25.866 24.3896 25.9053 24.3311ZM25.4805 24.875L25.3301 25.0322C25.3833 24.979 25.435 24.9246 25.4854 24.8691C25.4836 24.871 25.4822 24.8731 25.4805 24.875ZM6.44336 23.9131C6.42231 23.8734 6.40177 23.8334 6.38184 23.793C6.40176 23.8334 6.42231 23.8734 6.44336 23.9131ZM12.834 21.499C12.7717 21.4597 12.7094 21.4204 12.6484 21.3789C12.7094 21.4204 12.7717 21.4597 12.834 21.499ZM16.8525 19.8633C16.7978 19.8711 16.7427 19.8773 16.6875 19.8828C16.7427 19.8773 16.7978 19.8711 16.8525 19.8633ZM14.2031 19.2891C14.169 19.2673 14.135 19.2455 14.1016 19.2227C14.135 19.2455 14.169 19.2673 14.2031 19.2891ZM19.5918 18.0938C19.5689 18.1299 19.5456 18.1658 19.5215 18.2012C19.5456 18.1658 19.5689 18.1299 19.5918 18.0938ZM20.1143 16.8115C20.1046 16.8569 20.0952 16.9023 20.084 16.9473C20.0952 16.9023 20.1046 16.8569 20.1143 16.8115ZM20.1514 16.6152C20.1442 16.6603 20.1367 16.7053 20.1279 16.75C20.1367 16.7053 20.1442 16.6603 20.1514 16.6152ZM20.1611 15.4502C20.1689 15.5046 20.1752 15.5594 20.1807 15.6143C20.1752 15.5594 20.1689 15.5046 20.1611 15.4502ZM20.0371 14.8867C20.0515 14.9349 20.0646 14.9835 20.0771 15.0322C20.0646 14.9835 20.0515 14.9349 20.0371 14.8867ZM20.0859 15.0654C20.099 15.1181 20.1102 15.1713 20.1211 15.2246C20.1102 15.1713 20.099 15.1181 20.0859 15.0654ZM21.5283 9.47754L21.5088 9.33887C21.5139 9.39012 21.5214 9.44096 21.5312 9.49121C21.5304 9.48664 21.5292 9.48212 21.5283 9.47754Z" fill="black"/>
</svg>
