<svg width="32" height="32" viewBox="0 0 32 32" fill="none" xmlns="http://www.w3.org/2000/svg">
<rect width="32" height="32" rx="16" fill="white"/>
<path d="M12.5877 7.4668H19.4144M13.441 7.4668V8.61282M18.561 7.4668V9.84674C18.5611 10.5207 18.7606 11.1796 19.1345 11.7403L19.6943 12.58C20.0683 13.1409 20.2679 13.8001 20.2677 14.4744V15.4395M12.417 12.4161L12.3078 12.58C11.9338 13.1409 11.7342 13.8001 11.7344 14.4744V22.8268C11.7344 23.2794 11.9142 23.7135 12.2342 24.0336C12.5543 24.3537 12.9884 24.5335 13.441 24.5335H18.561C19.0137 24.5335 19.4478 24.3537 19.7678 24.0336C20.0879 23.7135 20.2677 23.2794 20.2677 22.8268V20.2668" stroke="black" stroke-width="1.6" stroke-linecap="round" stroke-linejoin="round"/>
<path d="M11.7335 18.5601C12.4091 18.2771 13.1343 18.1313 13.8668 18.1313C14.5993 18.1313 15.3245 18.2771 16.0001 18.5601C16.9253 18.9479 17.9387 19.0762 18.9313 18.9313M7.4668 7.4668L24.5335 24.5335" stroke="black" stroke-width="1.6" stroke-linecap="round" stroke-linejoin="round"/>
</svg>
