<svg width="32" height="32" viewBox="0 0 32 32" fill="none" xmlns="http://www.w3.org/2000/svg">
<path d="M9.85645 16C9.85645 14.9859 9.91069 13.98 10.0146 13.0029H5.41992C5.14597 13.9699 5 14.9771 5 16C5 17.0249 5.14589 18.0342 5.4209 19.0029H10.0156C9.91125 18.0241 9.85645 17.0162 9.85645 16ZM12.3467 21.0029C12.583 22.1483 12.898 23.1952 13.2822 24.0918C13.7307 25.1382 14.2333 25.8904 14.7266 26.3672C15.2157 26.8399 15.6476 27 16 27C16.3524 27 16.7844 26.8399 17.2734 26.3672C17.7665 25.8904 18.2683 25.1381 18.7168 24.0918C19.1011 23.1952 19.417 22.1484 19.6533 21.0029H12.3467ZM6.20703 21.0029C6.72562 22.0181 7.40058 22.9572 8.22168 23.7783C9.35208 24.9087 10.7043 25.765 12.1748 26.3105C11.9107 25.8742 11.6657 25.3954 11.4443 24.8789C10.9558 23.7389 10.5752 22.4219 10.3086 21.0029H6.20703ZM21.6904 21.0029C21.4238 22.4218 21.0442 23.7389 20.5557 24.8789C20.3343 25.3955 20.0884 25.8742 19.8242 26.3105C21.2951 25.765 22.6477 24.9089 23.7783 23.7783C24.5994 22.9572 25.2744 22.0181 25.793 21.0029H21.6904ZM19.8242 5.68848C20.0885 6.12504 20.3342 6.60425 20.5557 7.12109C21.0449 8.26263 21.4248 9.58187 21.6914 11.0029H25.7959C25.2769 9.98551 24.601 9.04435 23.7783 8.22168C22.6476 7.09098 21.2952 6.23404 19.8242 5.68848ZM16 5C15.6476 5 15.2157 5.16008 14.7266 5.63281C14.2333 6.10958 13.7307 6.86175 13.2822 7.9082C12.8973 8.80638 12.5812 9.85518 12.3447 11.0029H19.6543C19.4179 9.85522 19.1017 8.80636 18.7168 7.9082C18.2683 6.86191 17.7665 6.10956 17.2734 5.63281C16.7844 5.16011 16.3524 5 16 5ZM12.1748 5.68848C10.7042 6.23405 9.35216 7.0912 8.22168 8.22168C7.39901 9.04435 6.72307 9.98551 6.2041 11.0029H10.3076C10.5743 9.58176 10.9551 8.2627 11.4443 7.12109C11.6658 6.60433 11.9105 6.12497 12.1748 5.68848ZM11.8564 16C11.8564 17.0284 11.9169 18.0372 12.0283 19.0029H19.9717C20.0831 18.0372 20.1426 17.0284 20.1426 16C20.1426 14.9737 20.0836 13.9669 19.9727 13.0029H12.0273C11.9164 13.9669 11.8564 14.9737 11.8564 16ZM22.1426 16C22.1426 17.0162 22.0887 18.0241 21.9844 19.0029H26.5791C26.8541 18.0342 27 17.0249 27 16C27 14.9771 26.854 13.9699 26.5801 13.0029H21.9854C22.0893 13.9799 22.1426 14.9859 22.1426 16ZM29 16C29 19.4478 27.6304 22.7544 25.1924 25.1924C22.7544 27.6304 19.4478 29 16 29C12.5522 29 9.24559 27.6304 6.80762 25.1924C4.36964 22.7544 3 19.4478 3 16C3 12.5522 4.36964 9.24559 6.80762 6.80762C9.24559 4.36964 12.5522 3 16 3C19.4478 3 22.7544 4.36964 25.1924 6.80762C27.6304 9.24559 29 12.5522 29 16Z" fill="black"/>
</svg>
